<svg width="93" height="24" viewBox="0 0 93 24" fill="none" xmlns="http://www.w3.org/2000/svg">
<path d="M0.648 0.599998H3.016V20.952H15.56V23H0.648V0.599998ZM28.8463 23.192C26.6276 23.192 24.6116 22.7013 22.7983 21.72C21.0063 20.7173 19.5983 19.352 18.5743 17.624C17.5716 15.896 17.0703 13.9547 17.0703 11.8C17.0703 9.64533 17.5716 7.704 18.5743 5.976C19.5983 4.248 21.0063 2.89333 22.7983 1.912C24.6116 0.909332 26.6276 0.407999 28.8463 0.407999C31.0649 0.407999 33.0596 0.898666 34.8303 1.88C36.6223 2.86133 38.0303 4.22667 39.0543 5.976C40.0783 7.704 40.5903 9.64533 40.5903 11.8C40.5903 13.9547 40.0783 15.9067 39.0543 17.656C38.0303 19.384 36.6223 20.7387 34.8303 21.72C33.0596 22.7013 31.0649 23.192 28.8463 23.192ZM28.8463 21.08C30.6169 21.08 32.2169 20.6853 33.6463 19.896C35.0756 19.0853 36.1956 17.976 37.0063 16.568C37.8169 15.1387 38.2223 13.5493 38.2223 11.8C38.2223 10.0507 37.8169 8.472 37.0063 7.064C36.1956 5.63467 35.0756 4.52533 33.6463 3.736C32.2169 2.92533 30.6169 2.52 28.8463 2.52C27.0756 2.52 25.4649 2.92533 24.0143 3.736C22.5849 4.52533 21.4543 5.63467 20.6223 7.064C19.8116 8.472 19.4062 10.0507 19.4062 11.8C19.4062 13.5493 19.8116 15.1387 20.6223 16.568C21.4543 17.976 22.5849 19.0853 24.0143 19.896C25.4649 20.6853 27.0756 21.08 28.8463 21.08ZM61.674 11.8H63.946V20.344C62.9007 21.2613 61.6633 21.9653 60.234 22.456C58.8047 22.9467 57.3007 23.192 55.722 23.192C53.482 23.192 51.466 22.7013 49.674 21.72C47.882 20.7387 46.474 19.384 45.45 17.656C44.426 15.9067 43.914 13.9547 43.914 11.8C43.914 9.64533 44.426 7.704 45.45 5.976C46.474 4.22667 47.882 2.86133 49.674 1.88C51.466 0.898666 53.4927 0.407999 55.754 0.407999C57.4607 0.407999 59.0287 0.685333 60.458 1.24C61.8873 1.77333 63.0927 2.57333 64.074 3.64L62.602 5.144C60.8313 3.39467 58.5807 2.52 55.85 2.52C54.0367 2.52 52.394 2.92533 50.922 3.736C49.4713 4.52533 48.33 5.63467 47.498 7.064C46.666 8.472 46.25 10.0507 46.25 11.8C46.25 13.5493 46.666 15.128 47.498 16.536C48.33 17.944 49.4713 19.0533 50.922 19.864C52.3727 20.6747 54.0047 21.08 55.818 21.08C58.122 21.08 60.074 20.504 61.674 19.352V11.8ZM80.44 23.192C78.2213 23.192 76.2053 22.7013 74.392 21.72C72.6 20.7173 71.192 19.352 70.168 17.624C69.1653 15.896 68.664 13.9547 68.664 11.8C68.664 9.64533 69.1653 7.704 70.168 5.976C71.192 4.248 72.6 2.89333 74.392 1.912C76.2053 0.909332 78.2213 0.407999 80.44 0.407999C82.6587 0.407999 84.6533 0.898666 86.424 1.88C88.216 2.86133 89.624 4.22667 90.648 5.976C91.672 7.704 92.184 9.64533 92.184 11.8C92.184 13.9547 91.672 15.9067 90.648 17.656C89.624 19.384 88.216 20.7387 86.424 21.72C84.6533 22.7013 82.6587 23.192 80.44 23.192ZM80.44 21.08C82.2107 21.08 83.8107 20.6853 85.24 19.896C86.6693 19.0853 87.7893 17.976 88.6 16.568C89.4107 15.1387 89.816 13.5493 89.816 11.8C89.816 10.0507 89.4107 8.472 88.6 7.064C87.7893 5.63467 86.6693 4.52533 85.24 3.736C83.8107 2.92533 82.2107 2.52 80.44 2.52C78.6693 2.52 77.0587 2.92533 75.608 3.736C74.1787 4.52533 73.048 5.63467 72.216 7.064C71.4053 8.472 71 10.0507 71 11.8C71 13.5493 71.4053 15.1387 72.216 16.568C73.048 17.976 74.1787 19.0853 75.608 19.896C77.0587 20.6853 78.6693 21.08 80.44 21.08Z" fill="white"/>
</svg>
